<svg id="img-logo-linear-dark" xmlns="http://www.w3.org/2000/svg" width="200" height="104" viewBox="0 0 200 104">
  <defs>
    <style>
      .cls-1 {
        fill: none;
      }

      .cls-2, .cls-6 {
        fill: #fff;
      }

      .cls-2, .cls-3, .cls-4, .cls-5 {
        fill-rule: evenodd;
      }

      .cls-3 {
        fill: #af8f62;
      }

      .cls-4 {
        fill: #c1a474;
      }

      .cls-5 {
        fill: #cab289;
      }
    </style>
  </defs>
  <rect id="safe-area" class="cls-1" width="200" height="104"/>
  <g id="logo">
    <path id="Path_14774" data-name="Path 14774" class="cls-2" d="M0,0C0,49.719,122.817,21.031,59.007,104,139.323,25.714,19.669,34.733,0,0"/>
    <path id="Path_14775" data-name="Path 14775" class="cls-3" d="M4.976,28.728c12.137,32.547,44.8,21.7,67.2,32.547C52.119,42.231,19.65,45,4.976,28.728" transform="translate(-0.995 -5.746)"/>
    <path id="Path_14776" data-name="Path 14776" class="cls-4" d="M20.147,58.583c14.218,22.011,37.8,8.9,56.7,13.347-18.256-9.5-39.7-4.683-56.7-13.347" transform="translate(-4.029 -11.717)"/>
    <path id="Path_14777" data-name="Path 14777" class="cls-5" d="M41.4,79.928c16.882,10.654,27.441,0,41.162,0-11.5-4.037-27.793,1.286-41.162,0" transform="translate(-8.281 -15.678)"/>
    <path id="Path_14778" data-name="Path 14778" class="cls-2" d="M98.568,33.265a6.322,6.322,0,1,1-6.322,6.322,6.323,6.323,0,0,1,6.322-6.322" transform="translate(-18.449 -6.653)"/>
  </g>
  <g id="text-buddy" transform="translate(96.065 63.729)">
    <path id="Path_14779" data-name="Path 14779" class="cls-6" d="M120.081,94.039V79.661h7.566c2.738,0,4.139,1.746,4.139,3.665a3.21,3.21,0,0,1-2.479,3.3,3.457,3.457,0,0,1,2.759,3.514c0,2.177-1.422,3.9-4.182,3.9Zm8.579-10.174a1.512,1.512,0,0,0-1.682-1.509h-3.837v3.018h3.837a1.489,1.489,0,0,0,1.682-1.509m.28,5.842a1.642,1.642,0,0,0-1.832-1.638h-3.966v3.277h3.966c1.142,0,1.832-.6,1.832-1.638" transform="translate(-120.081 -79.661)"/>
    <path id="Path_14780" data-name="Path 14780" class="cls-6" d="M137.917,88.283V79.661h3.1V88.2a3.373,3.373,0,1,0,6.746,0V79.661h3.126v8.622c0,3.557-2.112,6.014-6.488,6.014s-6.488-2.457-6.488-6.014" transform="translate(-123.648 -79.661)"/>
    <path id="Path_14781" data-name="Path 14781" class="cls-6" d="M156.966,94.039V79.662h5.669c4.506,0,7.63,2.866,7.63,7.178,0,4.354-3.125,7.2-7.609,7.2Zm10.174-7.2a4.2,4.2,0,0,0-4.484-4.483h-2.63v8.988h2.608a4.309,4.309,0,0,0,4.506-4.5" transform="translate(-127.458 -79.661)"/>
    <path id="Path_14782" data-name="Path 14782" class="cls-6" d="M176.311,94.039V79.662h5.669c4.5,0,7.63,2.866,7.63,7.178,0,4.354-3.126,7.2-7.609,7.2Zm10.174-7.2A4.2,4.2,0,0,0,182,82.356h-2.63v8.988h2.608a4.309,4.309,0,0,0,4.5-4.5" transform="translate(-131.327 -79.661)"/>
    <path id="Path_14783" data-name="Path 14783" class="cls-6" d="M198.21,94.039V88.154l-5.518-8.492h3.492l3.557,5.755,3.557-5.755h3.47l-5.5,8.492v5.885Z" transform="translate(-134.603 -79.661)"/>
  </g>
  <g id="text-wellness" transform="translate(91.948 44.599)">
    <path id="Path_14784" data-name="Path 14784" class="cls-6" d="M127.329,70.4l-2.522-9.872-2.5,9.872h-3.254l-4.118-14.377h3.427l2.522,10.389,2.738-10.389h2.392l2.716,10.389,2.522-10.389h3.427l-4.1,14.377Z" transform="translate(-114.935 -55.803)"/>
    <path id="Path_14785" data-name="Path 14785" class="cls-6" d="M141.42,70.4V56.018h10.174v2.694h-7.113V61.73h6.962v2.694h-6.962V67.7h7.113V70.4Z" transform="translate(-120.232 -55.803)"/>
    <path id="Path_14786" data-name="Path 14786" class="cls-6" d="M156.966,70.4V56.018h3.082V67.7h6.078V70.4Z" transform="translate(-123.341 -55.803)"/>
    <path id="Path_14787" data-name="Path 14787" class="cls-6" d="M170.842,70.4V56.018h3.082V67.7H180V70.4Z" transform="translate(-126.116 -55.803)"/>
    <path id="Path_14788" data-name="Path 14788" class="cls-6" d="M194.794,70.4l-6.854-9.377V70.4h-3.061V56.018h3.147l6.66,9.031V56.018h3.061V70.4Z" transform="translate(-128.924 -55.803)"/>
    <path id="Path_14789" data-name="Path 14789" class="cls-6" d="M204.52,70.4V56.018h10.174v2.694h-7.113V61.73h6.962v2.694h-6.962V67.7h7.113V70.4Z" transform="translate(-132.852 -55.803)"/>
    <path id="Path_14790" data-name="Path 14790" class="cls-6" d="M218.988,68.315l1.682-2.393a6.314,6.314,0,0,0,4.57,1.962c1.7,0,2.5-.754,2.5-1.6,0-2.5-8.277-.754-8.277-6.165,0-2.392,2.069-4.375,5.454-4.375a8,8,0,0,1,5.6,2l-1.7,2.285a6.173,6.173,0,0,0-4.182-1.574c-1.293,0-2.026.56-2.026,1.422,0,2.263,8.255.733,8.255,6.1,0,2.63-1.9,4.613-5.755,4.613a8.3,8.3,0,0,1-6.122-2.285" transform="translate(-135.745 -55.749)"/>
    <path id="Path_14791" data-name="Path 14791" class="cls-6" d="M235.154,68.315l1.682-2.393a6.314,6.314,0,0,0,4.57,1.962c1.7,0,2.5-.754,2.5-1.6,0-2.5-8.277-.754-8.277-6.165,0-2.392,2.069-4.375,5.454-4.375a8,8,0,0,1,5.6,2l-1.7,2.285a6.172,6.172,0,0,0-4.182-1.574c-1.293,0-2.026.56-2.026,1.422,0,2.263,8.255.733,8.255,6.1,0,2.63-1.9,4.613-5.755,4.613a8.3,8.3,0,0,1-6.122-2.285" transform="translate(-138.979 -55.749)"/>
  </g>
</svg>
