<svg width="135" height="70" viewBox="0 0 135 70" fill="none" xmlns="http://www.w3.org/2000/svg">
<g clip-path="url(#clip0_207_30260)">
<path fill-rule="evenodd" clip-rule="evenodd" d="M0 0C0 33.4647 82.6653 14.1555 39.7163 70C93.7751 17.3075 13.2388 23.378 0 0Z" fill="#002569"/>
<path fill-rule="evenodd" clip-rule="evenodd" d="M2.67969 15.4688C10.8488 37.3754 32.8335 30.0745 47.9105 37.3754C34.4106 24.5573 12.5564 26.4211 2.67969 15.4688Z" fill="#AF8F62"/>
<path fill-rule="evenodd" clip-rule="evenodd" d="M10.8486 31.5444C20.4184 46.3595 36.2909 37.5348 49.0121 40.528C36.7244 34.1338 22.2909 37.376 10.8486 31.5444Z" fill="#C1A474"/>
<path fill-rule="evenodd" clip-rule="evenodd" d="M22.2915 43.2451C33.6544 50.4161 40.7614 43.2451 49.9967 43.2451C42.2563 40.5279 31.2899 44.1107 22.2915 43.2451Z" fill="#CAB289"/>
<path fill-rule="evenodd" clip-rule="evenodd" d="M53.9261 17.9119C54.7677 17.9119 55.5904 18.1614 56.2901 18.629C56.9899 19.0966 57.5353 19.7611 57.8574 20.5387C58.1794 21.3162 58.2637 22.1718 58.0995 22.9972C57.9353 23.8226 57.5301 24.5808 56.935 25.1759C56.3399 25.771 55.5817 26.1763 54.7562 26.3405C53.9308 26.5047 53.0752 26.4204 52.2977 26.0983C51.5202 25.7763 50.8556 25.2309 50.388 24.5311C49.9205 23.8314 49.6709 23.0087 49.6709 22.1671C49.6711 21.0386 50.1194 19.9563 50.9174 19.1584C51.7154 18.3604 52.7976 17.912 53.9261 17.9119Z" fill="#002569"/>
<path d="M70.2303 39.8433L68.5328 33.1987L66.8501 39.8433H64.6599L61.8882 30.1665H64.1948L65.8923 37.1591L67.7352 30.1665H69.3452L71.1733 37.1591L72.8708 30.1665H75.1774L72.4178 39.8433H70.2303Z" fill="#002569"/>
<path d="M76.1494 39.8433V30.1631H82.9973V31.9764H78.2097V34.0077H82.8957V35.821H78.2097V38.026H82.9973V39.8433H76.1494Z" fill="#002569"/>
<path d="M84.5205 39.8433V30.1631H86.5949V38.026H90.6859V39.8433H84.5205Z" fill="#002569"/>
<path d="M91.9922 39.8433V30.1631H94.0666V38.026H98.1562V39.8433H91.9922Z" fill="#002569"/>
<path d="M106.224 39.8433L101.611 33.5318V39.8433H99.5503V30.1631H101.668L106.151 36.2416V30.1631H108.211V39.8433H106.224Z" fill="#002569"/>
<path d="M110.126 39.8433V30.1631H116.974V31.9764H112.187V34.0077H116.873V35.821H112.187V38.026H116.974V39.8433H110.126Z" fill="#002569"/>
<path d="M117.917 38.4763L119.049 36.8656C119.446 37.2825 119.923 37.6145 120.452 37.8415C120.981 38.0685 121.55 38.1858 122.125 38.1862C123.269 38.1862 123.808 37.6787 123.808 37.1093C123.808 35.4266 118.237 36.6018 118.237 32.9598C118.237 31.3498 119.629 30.0151 121.908 30.0151C123.291 29.9628 124.64 30.4449 125.677 31.3612L124.533 32.8992C123.76 32.207 122.756 31.829 121.718 31.8398C120.848 31.8398 120.354 32.2167 120.354 32.7969C120.354 34.3201 125.911 33.2903 125.911 36.9027C125.911 38.6729 124.632 40.0076 122.037 40.0076C121.282 40.0434 120.527 39.9255 119.819 39.6612C119.111 39.3968 118.464 38.9914 117.917 38.4696" fill="#002569"/>
<path d="M126.621 38.4763L127.753 36.8656C128.15 37.2825 128.627 37.6145 129.156 37.8415C129.685 38.0685 130.254 38.1858 130.829 38.1862C131.974 38.1862 132.512 37.6787 132.512 37.1093C132.512 35.4266 126.941 36.6018 126.941 32.9598C126.941 31.3498 128.334 30.0151 130.612 30.0151C131.995 29.9628 133.344 30.4449 134.381 31.3612L133.237 32.8992C132.464 32.2069 131.46 31.829 130.422 31.8398C129.552 31.8398 129.058 32.2167 129.058 32.7969C129.058 34.3201 134.615 33.2903 134.615 36.9027C134.615 38.6729 133.336 40.0076 130.741 40.0076C129.986 40.0434 129.231 39.9255 128.523 39.6612C127.815 39.3968 127.168 38.9914 126.621 38.4696" fill="#002569"/>
<path d="M64.6592 52.5718V42.8943H69.7517C71.5946 42.8943 72.5375 44.0695 72.5375 45.3611C72.565 45.8684 72.4127 46.3692 72.1076 46.7754C71.8024 47.1816 71.3639 47.4673 70.869 47.5823C71.4083 47.6931 71.8909 47.9915 72.2309 48.4246C72.5709 48.8576 72.7463 49.3972 72.726 49.9475C72.726 51.4127 71.7689 52.5725 69.9112 52.5725L64.6592 52.5718ZM70.4335 45.7239C70.4341 45.5802 70.4043 45.4381 70.3461 45.3067C70.2878 45.1754 70.2024 45.0579 70.0954 44.9619C69.9885 44.866 69.8624 44.7938 69.7256 44.7501C69.5887 44.7063 69.4442 44.6921 69.3014 44.7082H66.7188V46.7396H69.3014C69.4446 46.7583 69.5902 46.7459 69.7282 46.7031C69.8662 46.6604 69.9933 46.5883 70.1008 46.4918C70.2083 46.3954 70.2937 46.2768 70.3512 46.1443C70.4086 46.0117 70.4367 45.8683 70.4335 45.7239ZM70.622 49.656C70.6226 49.4997 70.5901 49.345 70.5266 49.2022C70.4631 49.0593 70.37 48.9316 70.2534 48.8274C70.1369 48.7232 69.9996 48.6449 69.8505 48.5977C69.7015 48.5505 69.5442 48.5354 69.3889 48.5535H66.7195V50.7592H69.3889C70.1575 50.7592 70.622 50.3547 70.622 49.656Z" fill="#002569"/>
<path d="M74.2634 48.6976V42.8943H76.35V48.6417C76.35 49.2438 76.5892 49.8213 77.0149 50.247C77.4407 50.6728 78.0181 50.912 78.6203 50.912C79.2224 50.912 79.7998 50.6728 80.2256 50.247C80.6514 49.8213 80.8906 49.2438 80.8906 48.6417V42.8943H82.9946V48.6976C82.9946 51.0917 81.5731 52.7454 78.6277 52.7454C75.6823 52.7454 74.2607 51.0917 74.2607 48.6976" fill="#002569"/>
<path d="M84.5205 52.5718V42.895H88.3362C91.3691 42.895 93.4718 44.8241 93.4718 47.7264C93.4718 50.6569 91.3684 52.5725 88.3503 52.5725L84.5205 52.5718ZM91.3684 47.7257C91.3966 47.3221 91.3379 46.9172 91.1963 46.5382C91.0546 46.1593 90.8332 45.8151 90.5471 45.5291C90.261 45.2431 89.9168 45.0218 89.5378 44.8802C89.1588 44.7386 88.7539 44.6799 88.3503 44.7083H86.5801V50.7579H88.3355C88.7385 50.7768 89.1409 50.7114 89.5171 50.5659C89.8934 50.4204 90.2351 50.198 90.5205 49.913C90.806 49.6279 91.0288 49.2865 91.1748 48.9104C91.3208 48.5344 91.3867 48.132 91.3684 47.7291" fill="#002569"/>
<path d="M94.937 52.5718V42.895H98.7527C101.782 42.895 103.888 44.8241 103.888 47.7264C103.888 50.6569 101.784 52.5725 98.7668 52.5725L94.937 52.5718ZM101.785 47.7257C101.813 47.322 101.754 46.917 101.613 46.538C101.471 46.159 101.25 45.8149 100.963 45.5288C100.677 45.2428 100.333 45.0215 99.9539 44.8799C99.5748 44.7384 99.1698 44.6798 98.7661 44.7083H96.9959V50.7579H98.7513C99.1539 50.7762 99.556 50.7103 99.9317 50.5646C100.307 50.4189 100.649 50.1964 100.934 49.9114C101.219 49.6264 101.441 49.2852 101.587 48.9094C101.733 48.5337 101.798 48.1317 101.78 47.7291" fill="#002569"/>
<path d="M107.472 52.5718V48.6108L103.758 42.895H106.108L108.502 46.7686L110.896 42.895H113.232L109.53 48.6108V52.5718H107.472Z" fill="#002569"/>
</g>
<defs>
<clipPath id="clip0_207_30260">
<rect width="134.615" height="70" fill="white"/>
</clipPath>
</defs>
</svg>
