<svg id="img-circle-credential" xmlns="http://www.w3.org/2000/svg" xmlns:xlink="http://www.w3.org/1999/xlink" width="150" height="150" viewBox="0 0 150 150">
  <defs>
    <style>
      .cls-1, .cls-4, .cls-5, .cls-8 {
        fill: none;
      }

      .cls-2 {
        fill: #e5e9f0;
      }

      .cls-3 {
        fill: #002569;
      }

      .cls-10, .cls-11, .cls-4, .cls-5 {
        stroke: #fff;
      }

      .cls-4, .cls-8 {
        stroke-linecap: round;
      }

      .cls-4, .cls-5, .cls-8 {
        stroke-miterlimit: 10;
      }

      .cls-10, .cls-11, .cls-4, .cls-8 {
        stroke-width: 2px;
      }

      .cls-5 {
        stroke-width: 3.5px;
      }

      .cls-6 {
        opacity: 0.3;
        fill: url(#linear-gradient);
      }

      .cls-7 {
        fill: #fff;
      }

      .cls-8 {
        stroke: #002569;
      }

      .cls-10, .cls-11, .cls-9 {
        fill: #ff9f00;
      }

      .cls-10, .cls-11 {
        stroke-linejoin: round;
      }

      .cls-10 {
        fill-rule: evenodd;
      }

      .cls-12 {
        filter: url(#Path_1973);
      }
    </style>
    <filter id="Path_1973" x="19" y="30" width="112" height="90" filterUnits="userSpaceOnUse">
      <feOffset input="SourceAlpha"/>
      <feGaussianBlur stdDeviation="5" result="blur"/>
      <feFlood flood-color="#00266b" flood-opacity="0.502"/>
      <feComposite operator="in" in2="blur"/>
      <feComposite in="SourceGraphic"/>
    </filter>
    <linearGradient id="linear-gradient" x1="0.5" x2="0.5" y2="1" gradientUnits="objectBoundingBox">
      <stop offset="0"/>
      <stop offset="1" stop-opacity="0"/>
    </linearGradient>
  </defs>
  <rect id="safe-area" class="cls-1" width="150" height="150"/>
  <path id="circle" class="cls-2" d="M150,75A75,75,0,1,1,75,0a75,75,0,0,1,75,75"/>
  <g id="card">
    <g class="cls-12" transform="matrix(1, 0, 0, 1, 0, 0)">
      <path id="Path_1973-2" data-name="Path 1973" class="cls-3" d="M111,105H39a5,5,0,0,1-5-5V50a5,5,0,0,1,5-5h72a5,5,0,0,1,5,5v50a5,5,0,0,1-5,5"/>
    </g>
    <line id="Line_6" data-name="Line 6" class="cls-4" x2="18" transform="translate(44 86)"/>
    <line id="Line_7" data-name="Line 7" class="cls-4" x2="14" transform="translate(44 93)"/>
    <line id="Line_8" data-name="Line 8" class="cls-4" x1="38" transform="translate(68 57)"/>
    <line id="Line_9" data-name="Line 9" class="cls-4" x1="20" transform="translate(68 64)"/>
    <rect id="Rectangle_670" data-name="Rectangle 670" class="cls-5" width="82" height="60" rx="5" transform="translate(34 45)"/>
  </g>
  <g id="button">
    <path id="Path_1974" data-name="Path 1974" class="cls-6" d="M116,98H84a9,9,0,0,1,0-18h32a9,9,0,0,1,0,18"/>
    <path id="Path_1975" data-name="Path 1975" class="cls-7" d="M116,93H84a9,9,0,0,1,0-18h32a9,9,0,0,1,0,18"/>
    <path id="Path_1976" data-name="Path 1976" class="cls-8" d="M85.75,84l2.5,2.5,5-5"/>
    <line id="Line_10" data-name="Line 10" class="cls-8" x2="16" transform="translate(98.25 84)"/>
  </g>
  <g id="icon">
    <path id="Path_1977" data-name="Path 1977" class="cls-6" d="M59,57A17,17,0,1,1,42,40,17,17,0,0,1,59,57"/>
    <path id="Path_1978" data-name="Path 1978" class="cls-9" d="M59,52A17,17,0,1,1,42,35,17,17,0,0,1,59,52"/>
    <g id="icon-user-prompt" transform="translate(32 41.999)">
      <rect id="icon-box" class="cls-1" width="20" height="20" transform="translate(0 0.001)"/>
      <g id="icon-user-prompt-2" data-name="icon-user-prompt">
        <path id="Oval" class="cls-10" d="M18.1,16.1c0-3.87-4.74-7-8.1-7s-8.1,3.13-8.1,7S18.1,19.97,18.1,16.1Z"/>
        <circle id="Oval-2" data-name="Oval" class="cls-11" cx="5.4" cy="5.4" r="5.4" transform="translate(4.6 1)"/>
      </g>
    </g>
  </g>
</svg>
