<svg id="img-pw-forgot" xmlns="http://www.w3.org/2000/svg" xmlns:xlink="http://www.w3.org/1999/xlink" width="150" height="150" viewBox="0 0 150 150">
  <defs>
    <filter id="Path_1509" x="26" y="50" width="98" height="90" filterUnits="userSpaceOnUse">
      <feOffset input="SourceAlpha"/>
      <feGaussianBlur stdDeviation="5" result="blur"/>
      <feFlood flood-opacity="0.2"/>
      <feComposite operator="in" in2="blur"/>
      <feComposite in="SourceGraphic"/>
    </filter>
    <filter id="Path_1511" x="36" y="10" width="78" height="70" filterUnits="userSpaceOnUse">
      <feOffset input="SourceAlpha"/>
      <feGaussianBlur stdDeviation="5" result="blur-2"/>
      <feFlood flood-opacity="0.2"/>
      <feComposite operator="in" in2="blur-2"/>
      <feComposite in="SourceGraphic"/>
    </filter>
    <linearGradient id="linear-gradient" x1="0.5" x2="0.5" y2="1" gradientUnits="objectBoundingBox">
      <stop offset="0"/>
      <stop offset="1" stop-opacity="0"/>
    </linearGradient>
  </defs>
  <rect id="safe-area" width="150" height="150" fill="none"/>
  <path id="circle" d="M150,75A75,75,0,1,1,75,0a75,75,0,0,1,75,75" fill="#e5e9f0"/>
  <g id="lock">
    <g transform="matrix(1, 0, 0, 1, 0, 0)" filter="url(#Path_1509)">
      <path id="Path_1509-2" data-name="Path 1509" d="M106.535,107.251l-29,17.059a5,5,0,0,1-5.07,0l-29-17.059A5,5,0,0,1,41,102.941V70a5,5,0,0,1,5-5h58a5,5,0,0,1,5,5v32.941a5,5,0,0,1-2.465,4.31" fill="#002569"/>
    </g>
    <path id="Path_1510" data-name="Path 1510" d="M106.535,107.251l-29,17.059a5,5,0,0,1-5.07,0l-29-17.059A5,5,0,0,1,41,102.941V70a5,5,0,0,1,5-5h58a5,5,0,0,1,5,5v32.941A5,5,0,0,1,106.535,107.251Z" fill="none" stroke="#fff" stroke-miterlimit="10" stroke-width="3.5"/>
    <g transform="matrix(1, 0, 0, 1, 0, 0)" filter="url(#Path_1511)">
      <path id="Path_1511-2" data-name="Path 1511" d="M75,25A24,24,0,0,0,51,49V65H61V49a14,14,0,0,1,28,0V65H99V49A24,24,0,0,0,75,25" fill="#002569"/>
    </g>
    <path id="Path_1512" data-name="Path 1512" d="M75,25A24,24,0,0,0,51,49V65H61V49a14,14,0,0,1,28,0V65H99V49A24,24,0,0,0,75,25Z" fill="none" stroke="#fff" stroke-miterlimit="10" stroke-width="3.5"/>
    <path id="Path_1513" data-name="Path 1513" d="M81,79a6,6,0,1,0-9,5.191V90a3,3,0,0,0,6,0V84.191A5.992,5.992,0,0,0,81,79" fill="#fff"/>
  </g>
  <g id="question-mark">
    <path id="Path_1514" data-name="Path 1514" d="M125,77a17,17,0,1,1-17-17,17,17,0,0,1,17,17" opacity="0.2" fill="url(#linear-gradient)"/>
    <path id="Path_1515" data-name="Path 1515" d="M125,72a17,17,0,1,1-17-17,17,17,0,0,1,17,17" fill="#ff9f00"/>
    <path id="Path_1516" data-name="Path 1516" d="M106.336,74.262v-.27c0-1.5.726-2.5,2.25-3.41,1.418-.855,1.922-1.559,1.922-2.707a2.371,2.371,0,0,0-2.625-2.332,2.612,2.612,0,0,0-2.731,1.98c-.234.727-.6.985-1.184.985a1.045,1.045,0,0,1-1.136-1.149,3.093,3.093,0,0,1,.316-1.371c.715-1.617,2.5-2.6,4.84-2.6,3.059,0,5.18,1.793,5.18,4.382a4.432,4.432,0,0,1-2.461,3.985c-1.512.89-1.91,1.488-1.969,2.637-.059.75-.41,1.242-1.172,1.242a1.215,1.215,0,0,1-1.23-1.371m-.305,4.84a1.541,1.541,0,1,1,1.535,1.512,1.507,1.507,0,0,1-1.535-1.512" fill="#fff"/>
  </g>
  <g id="password">
    <path id="Path_1517" data-name="Path 1517" d="M66,118H34a9,9,0,0,1,0-18H66a9,9,0,0,1,0,18" opacity="0.3" fill="url(#linear-gradient)"/>
    <path id="Path_1518" data-name="Path 1518" d="M66,113H34a9,9,0,0,1,0-18H66a9,9,0,0,1,0,18" fill="#ff9f00"/>
    <path id="Path_1519" data-name="Path 1519" d="M35.938,106.989v-.051l.143-1.866L34.4,106.22a.774.774,0,0,1-.482.154.737.737,0,0,1-.246-1.425l1.805-.9-1.805-.913a.732.732,0,0,1,.246-1.416.775.775,0,0,1,.482.155L36.081,103l-.134-1.939a.123.123,0,0,1-.009-.051.707.707,0,0,1,.758-.769.681.681,0,0,1,.718.759.131.131,0,0,1-.01.061L37.27,103l1.661-1.128a.794.794,0,0,1,.483-.155.726.726,0,0,1,.716.75.706.706,0,0,1-.461.666l-1.814.913,1.814.9a.74.74,0,0,1-.255,1.425.793.793,0,0,1-.483-.154l-1.65-1.148.133,1.866v.051a.684.684,0,0,1-.718.77.708.708,0,0,1-.758-.77" fill="#fff"/>
    <path id="Path_1520" data-name="Path 1520" d="M44.828,106.989v-.051l.144-1.866L43.29,106.22a.774.774,0,0,1-.482.154.737.737,0,0,1-.246-1.425l1.805-.9-1.805-.913a.732.732,0,0,1,.246-1.416.775.775,0,0,1,.482.155L44.972,103l-.134-1.939a.112.112,0,0,1-.01-.051.709.709,0,0,1,.759-.769.681.681,0,0,1,.718.759.131.131,0,0,1-.01.061L46.161,103l1.661-1.128a.794.794,0,0,1,.483-.155.726.726,0,0,1,.716.75.706.706,0,0,1-.461.666l-1.814.913,1.814.9a.74.74,0,0,1-.255,1.425.793.793,0,0,1-.483-.154l-1.65-1.148.133,1.866v.051a.684.684,0,0,1-.718.77.709.709,0,0,1-.759-.77" fill="#fff"/>
    <path id="Path_1521" data-name="Path 1521" d="M53.718,106.989v-.051l.144-1.866L52.18,106.22a.771.771,0,0,1-.483.154.738.738,0,0,1-.246-1.425l1.805-.9-1.805-.913a.732.732,0,0,1,.246-1.416.771.771,0,0,1,.483.155L53.862,103l-.133-1.939a.1.1,0,0,1-.011-.051.708.708,0,0,1,.759-.769.68.68,0,0,1,.718.759.12.12,0,0,1-.011.061L55.051,103l1.661-1.128a.8.8,0,0,1,.482-.155.728.728,0,0,1,.718.75.707.707,0,0,1-.462.666l-1.815.913,1.815.9a.74.74,0,0,1-.256,1.425.794.794,0,0,1-.482-.154l-1.651-1.148.134,1.866v.051a.684.684,0,0,1-.718.77.708.708,0,0,1-.759-.77" fill="#fff"/>
    <path id="Path_1522" data-name="Path 1522" d="M62.607,106.989v-.051l.144-1.866-1.682,1.148a.774.774,0,0,1-.482.154.737.737,0,0,1-.246-1.425l1.805-.9-1.805-.913a.732.732,0,0,1,.246-1.416.775.775,0,0,1,.482.155L62.751,103l-.134-1.939a.112.112,0,0,1-.01-.051.709.709,0,0,1,.759-.769.681.681,0,0,1,.718.759.131.131,0,0,1-.01.061L63.94,103l1.661-1.128a.794.794,0,0,1,.483-.155.726.726,0,0,1,.716.75.706.706,0,0,1-.461.666l-1.814.913,1.814.9a.74.74,0,0,1-.255,1.425.793.793,0,0,1-.483-.154l-1.65-1.148.133,1.866v.051a.684.684,0,0,1-.718.77.709.709,0,0,1-.759-.77" fill="#fff"/>
  </g>
</svg>
