<svg id="img-acc-credential" xmlns="http://www.w3.org/2000/svg" xmlns:xlink="http://www.w3.org/1999/xlink" width="150" height="150" viewBox="0 0 150 150">
  <defs>
    <style>
      .cls-1, .cls-4, .cls-5 {
        fill: none;
      }

      .cls-2 {
        fill: #e5e9f0;
      }

      .cls-3 {
        fill: #002569;
      }

      .cls-10, .cls-4, .cls-5, .cls-9 {
        stroke: #fff;
      }

      .cls-4 {
        stroke-linecap: round;
      }

      .cls-4, .cls-5 {
        stroke-miterlimit: 10;
      }

      .cls-10, .cls-4, .cls-9 {
        stroke-width: 2px;
      }

      .cls-5 {
        stroke-width: 3.5px;
      }

      .cls-6 {
        opacity: 0.3;
        fill: url(#linear-gradient);
      }

      .cls-7 {
        fill: #fff;
      }

      .cls-10, .cls-8, .cls-9 {
        fill: #ff9f00;
      }

      .cls-10, .cls-9 {
        stroke-linejoin: round;
      }

      .cls-9 {
        fill-rule: evenodd;
      }

      .cls-11 {
        filter: url(#Path_1973);
      }
    </style>
    <filter id="Path_1973" x="19" y="30" width="112" height="90" filterUnits="userSpaceOnUse">
      <feOffset input="SourceAlpha"/>
      <feGaussianBlur stdDeviation="5" result="blur"/>
      <feFlood flood-color="#00266b" flood-opacity="0.502"/>
      <feComposite operator="in" in2="blur"/>
      <feComposite in="SourceGraphic"/>
    </filter>
    <linearGradient id="linear-gradient" x1="0.5" x2="0.5" y2="1" gradientUnits="objectBoundingBox">
      <stop offset="0"/>
      <stop offset="1" stop-opacity="0"/>
    </linearGradient>
  </defs>
  <rect id="safe-area" class="cls-1" width="150" height="150"/>
  <path id="circle" class="cls-2" d="M150,75A75,75,0,1,1,75,0a75,75,0,0,1,75,75"/>
  <g id="card">
    <g class="cls-11" transform="matrix(1, 0, 0, 1, 0, 0)">
      <path id="Path_1973-2" data-name="Path 1973" class="cls-3" d="M111,105H39a5,5,0,0,1-5-5V50a5,5,0,0,1,5-5h72a5,5,0,0,1,5,5v50a5,5,0,0,1-5,5"/>
    </g>
    <line id="Line_6" data-name="Line 6" class="cls-4" x2="18" transform="translate(44 86)"/>
    <line id="Line_7" data-name="Line 7" class="cls-4" x2="14" transform="translate(44 93)"/>
    <line id="Line_8" data-name="Line 8" class="cls-4" x1="38" transform="translate(68 57)"/>
    <line id="Line_9" data-name="Line 9" class="cls-4" x1="20" transform="translate(68 64)"/>
    <rect id="Rectangle_670" data-name="Rectangle 670" class="cls-5" width="82" height="60" rx="5" transform="translate(34 45)"/>
  </g>
  <g id="password">
    <path id="Path_1974" data-name="Path 1974" class="cls-6" d="M116,98H84a9,9,0,0,1,0-18h32a9,9,0,0,1,0,18"/>
    <path id="Path_1975" data-name="Path 1975" class="cls-7" d="M116,93H84a9,9,0,0,1,0-18h32a9,9,0,0,1,0,18"/>
    <path id="Path_14792" data-name="Path 14792" class="cls-3" d="M35.938,106.989v-.051l.143-1.866L34.4,106.22a.774.774,0,0,1-.482.154.737.737,0,0,1-.246-1.425l1.805-.9-1.805-.913a.732.732,0,0,1,.246-1.416.775.775,0,0,1,.482.155L36.081,103l-.134-1.939a.123.123,0,0,1-.009-.051.707.707,0,0,1,.758-.769.681.681,0,0,1,.718.759.131.131,0,0,1-.01.061L37.27,103l1.661-1.128a.794.794,0,0,1,.483-.155.726.726,0,0,1,.716.75.706.706,0,0,1-.461.666l-1.814.913,1.814.9a.74.74,0,0,1-.255,1.425.793.793,0,0,1-.483-.154l-1.65-1.148.133,1.866v.051a.684.684,0,0,1-.718.77.708.708,0,0,1-.758-.77" transform="translate(50.001 -20.001)"/>
    <path id="Path_14793" data-name="Path 14793" class="cls-3" d="M44.828,106.989v-.051l.144-1.866L43.29,106.22a.774.774,0,0,1-.482.154.737.737,0,0,1-.246-1.425l1.805-.9-1.805-.913a.732.732,0,0,1,.246-1.416.775.775,0,0,1,.482.155L44.972,103l-.134-1.939a.112.112,0,0,1-.01-.051.709.709,0,0,1,.759-.769.681.681,0,0,1,.718.759.131.131,0,0,1-.01.061L46.161,103l1.661-1.128a.794.794,0,0,1,.483-.155.726.726,0,0,1,.716.75.706.706,0,0,1-.461.666l-1.814.913,1.814.9a.74.74,0,0,1-.255,1.425.793.793,0,0,1-.483-.154l-1.65-1.148.133,1.866v.051a.684.684,0,0,1-.718.77.709.709,0,0,1-.759-.77" transform="translate(50.001 -20.001)"/>
    <path id="Path_14794" data-name="Path 14794" class="cls-3" d="M53.718,106.989v-.051l.144-1.866L52.18,106.22a.771.771,0,0,1-.483.154.738.738,0,0,1-.246-1.425l1.805-.9-1.805-.913a.732.732,0,0,1,.246-1.416.771.771,0,0,1,.483.155L53.862,103l-.133-1.939a.1.1,0,0,1-.011-.051.708.708,0,0,1,.759-.769.68.68,0,0,1,.718.759.12.12,0,0,1-.011.061L55.051,103l1.661-1.128a.8.8,0,0,1,.482-.155.728.728,0,0,1,.718.75.707.707,0,0,1-.462.666l-1.815.913,1.815.9a.74.74,0,0,1-.256,1.425.794.794,0,0,1-.482-.154l-1.651-1.148.134,1.866v.051a.684.684,0,0,1-.718.77.708.708,0,0,1-.759-.77" transform="translate(50.001 -20.001)"/>
    <path id="Path_14795" data-name="Path 14795" class="cls-3" d="M62.607,106.989v-.051l.144-1.866-1.682,1.148a.774.774,0,0,1-.482.154.737.737,0,0,1-.246-1.425l1.805-.9-1.805-.913a.732.732,0,0,1,.246-1.416.775.775,0,0,1,.482.155L62.751,103l-.134-1.939a.112.112,0,0,1-.01-.051.709.709,0,0,1,.759-.769.681.681,0,0,1,.718.759.131.131,0,0,1-.01.061L63.94,103l1.661-1.128a.794.794,0,0,1,.483-.155.726.726,0,0,1,.716.75.706.706,0,0,1-.461.666l-1.814.913,1.814.9a.74.74,0,0,1-.255,1.425.793.793,0,0,1-.483-.154l-1.65-1.148.133,1.866v.051a.684.684,0,0,1-.718.77.709.709,0,0,1-.759-.77" transform="translate(50.001 -20.001)"/>
  </g>
  <g id="icon">
    <path id="Path_1977" data-name="Path 1977" class="cls-6" d="M59,57A17,17,0,1,1,42,40,17,17,0,0,1,59,57"/>
    <path id="Path_1978" data-name="Path 1978" class="cls-8" d="M59,52A17,17,0,1,1,42,35,17,17,0,0,1,59,52"/>
    <g id="icon-user-prompt" transform="translate(32 41.999)">
      <rect id="icon-box" class="cls-1" width="20" height="20" transform="translate(0 0.001)"/>
      <g id="icon-user-prompt-2" data-name="icon-user-prompt">
        <path id="Oval" class="cls-9" d="M18.1,16.1c0-3.87-4.74-7-8.1-7s-8.1,3.13-8.1,7S18.1,19.97,18.1,16.1Z"/>
        <circle id="Oval-2" data-name="Oval" class="cls-10" cx="5.4" cy="5.4" r="5.4" transform="translate(4.6 1)"/>
      </g>
    </g>
  </g>
</svg>
